<?xml version="1.0" encoding="utf-8"?>
<!-- Generator: Adobe Illustrator 23.0.1, SVG Export Plug-In . SVG Version: 6.00 Build 0)  -->
<svg version="1.1" id="Capa_1" xmlns="http://www.w3.org/2000/svg" xmlns:xlink="http://www.w3.org/1999/xlink" x="0px" y="0px"
	 viewBox="0 0 480 480" style="enable-background:new 0 0 480 480;" xml:space="preserve">
<style type="text/css">
	.st0{fill:#0F93E9;}
</style>
<g>
	<g>
		<path class="st0" d="M400,320c-38.7,0-70.9,27.5-78.4,64H256V96h65.6c7.4,36.5,39.7,64,78.4,64c44.1,0,80-35.9,80-80
			S444.1,0,400,0c-38.7,0-70.9,27.5-78.4,64H240c-8.8,0-16,7.2-16,16v144h-65.6c-7.4-36.5-39.7-64-78.4-64c-44.1,0-80,35.9-80,80
			s35.9,80,80,80c38.7,0,70.9-27.5,78.4-64H224v144c0,8.8,7.2,16,16,16h81.6c7.4,36.5,39.7,64,78.4,64c44.1,0,80-35.9,80-80
			S444.1,320,400,320z M400,32c26.5,0,48,21.5,48,48s-21.5,48-48,48s-48-21.5-48-48S373.5,32,400,32z M80,288c-26.5,0-48-21.5-48-48
			s21.5-48,48-48s48,21.5,48,48S106.5,288,80,288z M400,448c-26.5,0-48-21.5-48-48s21.5-48,48-48s48,21.5,48,48S426.5,448,400,448z"
			/>
	</g>
</g>
</svg>
