<?xml version="1.0" encoding="utf-8"?>
<!-- Generator: Adobe Illustrator 23.0.1, SVG Export Plug-In . SVG Version: 6.00 Build 0)  -->
<svg version="1.1" id="Capa_1" xmlns="http://www.w3.org/2000/svg" xmlns:xlink="http://www.w3.org/1999/xlink" x="0px" y="0px"
	 viewBox="0 0 512 512" style="enable-background:new 0 0 512 512;" xml:space="preserve">
<style type="text/css">
	.st0{fill:#0F93E9;}
</style>
<g>
	<g>
		<path class="st0" d="M477.4,304c0-0.7-0.3-1.3-0.4-2c-0.1-1.1-0.3-2.1-0.6-3.1c-0.4-1-0.8-1.9-1.3-2.8c-0.5-0.9-1-1.7-1.6-2.5
			c-0.7-0.8-1.5-1.4-2.3-2c-0.8-0.6-1.6-1.2-2.5-1.7c-1-0.5-2-0.8-3-1.1c-0.7-0.2-1.2-0.6-2-0.7c-0.4-0.1-0.8,0.1-1.2,0.1
			c-0.4-0.1-0.7-0.3-1.1-0.3H224V50.6c0-0.4-0.2-0.7-0.2-1.1s0.1-0.7,0.1-1.1c-0.1-0.7-0.5-1.2-0.7-1.9c-0.3-1.1-0.6-2.1-1.1-3
			c-0.4-0.9-1-1.7-1.6-2.4c-0.7-0.9-1.3-1.6-2.1-2.3c-0.7-0.6-1.5-1.1-2.3-1.6c-1-0.6-1.9-1.1-2.9-1.4c-0.9-0.3-1.9-0.4-2.9-0.6
			c-0.7-0.1-1.4-0.4-2.1-0.4c-0.4,0-0.7,0.2-1.1,0.2c-0.4,0-0.7-0.1-1.1-0.1C88.4,51.3,0,153.3,0,272c0,132.4,107.6,240,240,240
			c118.7,0,220.7-88.4,237.3-205.8c0.1-0.4-0.1-0.7-0.1-1.1C477.2,304.7,477.4,304.4,477.4,304z M240,480c-114.7,0-208-93.3-208-208
			c0-96.5,67.8-179.4,160-201.3V304c0,8.8,7.2,16,16,16h233.3C419.5,412.2,336.5,480,240,480z"/>
	</g>
</g>
<g>
	<g>
		<path class="st0" d="M272,0c-4.3,0-8.3,1.7-11.3,4.7S256,11.8,256,16l0.1,224.1c0,4.3,1.7,8.3,4.7,11.3c3,3,7.1,4.7,11.3,4.7
			L496,256c8.8,0,16-7.2,16-16C512,107.6,404.4,0,272,0z M288.1,224.1L288,32.6C390,40.4,471.6,122,479.4,224L288.1,224.1z"/>
	</g>
</g>
</svg>
