<?xml version="1.0" encoding="utf-8"?>
<!-- Generator: Adobe Illustrator 23.0.1, SVG Export Plug-In . SVG Version: 6.00 Build 0)  -->
<svg version="1.1" id="Capa_1" xmlns="http://www.w3.org/2000/svg" xmlns:xlink="http://www.w3.org/1999/xlink" x="0px" y="0px"
	 viewBox="0 0 512 512" style="enable-background:new 0 0 512 512;" xml:space="preserve">
<style type="text/css">
	.st0{fill:#0F93E9;}
</style>
<g>
	<g>
		<path class="st0" d="M96,0C60.7,0,32,28.7,32,64s28.7,64,64,64s64-28.7,64-64S131.3,0,96,0z M96,96c-17.6,0-32-14.3-32-32
			s14.4-32,32-32s32,14.3,32,32S113.6,96,96,96z"/>
	</g>
</g>
<g>
	<g>
		<path class="st0" d="M272,160H128c-4.3,0-8.3,1.7-11.3,4.7L96,185.4l-20.7-20.7c-3-3-7.1-4.7-11.3-4.7H46.4
			c-16.3,0-30,12.3-31.9,28.8L0.1,334.4c-0.4,4.5,1,9,4.1,12.3c3,3.4,7.3,5.2,11.8,5.2h17.5l13,131.4c1.9,16.3,15.6,28.6,31.9,28.6
			h35.2c16.3,0,30-12.3,31.9-28.7L169.3,256H272c26.5,0,48-21.5,48-48S298.5,160,272,160z M272,224H154.9c-8.2,0-15.1,6.2-15.9,14.3
			L113.6,480l-35.3,0L63.9,334.4C63.1,326.2,56.2,320,48,320H33.7l12.7-128h11l27.3,27.3c6.2,6.2,16.4,6.2,22.6,0l27.3-27.3H272
			c8.8,0,16,7.2,16,16S280.8,224,272,224z"/>
	</g>
</g>
<g>
	<g>
		<path class="st0" d="M496,384h-96c-8.8,0-16,7.2-16,16v96c0,8.8,7.2,16,16,16h96c8.8,0,16-7.2,16-16v-96
			C512,391.2,504.8,384,496,384z M480,480h-64v-64h64V480z"/>
	</g>
</g>
<g>
	<g>
		<path class="st0" d="M336,288h-96c-8.8,0-16,7.2-16,16v192c0,8.8,7.2,16,16,16h96c8.8,0,16-7.2,16-16V304
			C352,295.2,344.8,288,336,288z M320,480h-64V320h64V480z"/>
	</g>
</g>
</svg>
