<?xml version="1.0" encoding="utf-8"?>
<!-- Generator: Adobe Illustrator 23.0.1, SVG Export Plug-In . SVG Version: 6.00 Build 0)  -->
<svg version="1.1" id="Capa_1" xmlns="http://www.w3.org/2000/svg" xmlns:xlink="http://www.w3.org/1999/xlink" x="0px" y="0px"
	 viewBox="0 0 512 512" style="enable-background:new 0 0 512 512;" xml:space="preserve">
<style type="text/css">
	.st0{fill:#0F93E9;}
</style>
<g>
	<g>
		<path class="st0" d="M441.9,401.8c34.9-40.9,54.1-92,54.1-145.8c0-118.1-92-214.9-208-223.2V16c0-8.8-7.2-16-16-16
			C130.8,0,16,114.8,16,256s114.8,256,256,256c68.6,0,133.1-26.9,181.6-75.8c6.1-6.2,6.2-16.2,0.1-22.5L441.9,401.8z M272,480
			C148.5,480,48,379.5,48,256c0-118.1,91.9-215.2,208-223.4v218.3c0,4.2,1.6,8.2,4.6,11.2l158.8,162.4
			C378.5,460.4,326.8,480,272,480z M288,244.4V64.8C386.4,73,464,155.5,464,256c0,45.1-15.7,88.1-44.5,122.8L288,244.4z"/>
	</g>
</g>
</svg>
