<?xml version="1.0" encoding="utf-8"?>
<!-- Generator: Adobe Illustrator 23.0.1, SVG Export Plug-In . SVG Version: 6.00 Build 0)  -->
<svg version="1.1" id="Capa_1" xmlns="http://www.w3.org/2000/svg" xmlns:xlink="http://www.w3.org/1999/xlink" x="0px" y="0px"
	 viewBox="0 0 512 512" style="enable-background:new 0 0 512 512;" xml:space="preserve">
<style type="text/css">
	.st0{fill:#0F93E9;}
</style>
<g>
	<g>
		<path class="st0" d="M496,256H304h-96H16c-8.8,0-16,7.2-16,16s7.2,16,16,16h192h96h192c8.8,0,16-7.2,16-16S504.8,256,496,256z"/>
	</g>
</g>
<g>
	<g>
		<path class="st0" d="M496,320c-8.8,0-16,7.2-16,16v80h-64v-80c0-8.8-7.2-16-16-16s-16,7.2-16,16v96c0,8.8,7.2,16,16,16h96
			c8.8,0,16-7.2,16-16v-96C512,327.2,504.8,320,496,320z"/>
	</g>
</g>
<g>
	<g>
		<path class="st0" d="M496,64h-96c-8.8,0-16,7.2-16,16v128c0,8.9,7.2,16,16,16s16-7.1,16-16V96h64v112c0,8.9,7.2,16,16,16
			s16-7.1,16-16V80C512,71.2,504.8,64,496,64z"/>
	</g>
</g>
<g>
	<g>
		<path class="st0" d="M304,320c-8.8,0-16,7.2-16,16v144h-64V336c0-8.8-7.2-16-16-16s-16,7.2-16,16v160c0,8.8,7.2,16,16,16h96
			c8.8,0,16-7.2,16-16V336C320,327.2,312.8,320,304,320z"/>
	</g>
</g>
<g>
	<g>
		<path class="st0" d="M304,128h-96c-8.8,0-16,7.2-16,16v64c0,8.9,7.2,16,16,16s16-7.1,16-16v-48h64v48c0,8.9,7.2,16,16,16
			s16-7.1,16-16v-64C320,135.2,312.8,128,304,128z"/>
	</g>
</g>
<g>
	<g>
		<path class="st0" d="M112,320c-8.8,0-16,7.2-16,16v48H32v-48c0-8.8-7.2-16-16-16s-16,7.2-16,16v64c0,8.8,7.2,16,16,16h96
			c8.8,0,16-7.2,16-16v-64C128,327.2,120.8,320,112,320z"/>
	</g>
</g>
<g>
	<g>
		<path class="st0" d="M112,0H16C7.2,0,0,7.2,0,16v192c0,8.9,7.2,16,16,16s16-7.1,16-16V32h64v176c0,8.9,7.2,16,16,16s16-7.1,16-16
			V16C128,7.2,120.8,0,112,0z"/>
	</g>
</g>
</svg>
