<?xml version="1.0" encoding="utf-8"?>
<!-- Generator: Adobe Illustrator 23.0.1, SVG Export Plug-In . SVG Version: 6.00 Build 0)  -->
<svg version="1.1" id="Capa_1" xmlns="http://www.w3.org/2000/svg" xmlns:xlink="http://www.w3.org/1999/xlink" x="0px" y="0px"
	 viewBox="0 0 512 512" style="enable-background:new 0 0 512 512;" xml:space="preserve">
<style type="text/css">
	.st0{fill:#0F93E9;}
</style>
<g>
	<g>
		<path class="st0" d="M496,480h-48V224c0-8.8-7.2-16-16-16s-16,7.2-16,16v256H288V304c0-8.8-7.2-16-16-16s-16,7.2-16,16v176H128
			v-48c0-8.8-7.2-16-16-16s-16,7.2-16,16v48H32V16c0-8.8-7.2-16-16-16S0,7.2,0,16v464c0,17.6,14.3,32,32,32h464c8.8,0,16-7.2,16-16
			S504.8,480,496,480z"/>
	</g>
</g>
<g>
	<g>
		<path class="st0" d="M432,80c-26.5,0-48,21.5-48,48c0,2,0.4,4,0.6,6l-79.5,39.5c-8.6-8.3-20.3-13.4-33.1-13.4
			c-26.5,0-48,21.5-48,48c0,5.5,1.1,10.7,2.8,15.6l-89.5,71.8c-7.4-4.6-16-7.4-25.3-7.4c-26.5,0-48,21.5-48,48s21.5,48,48,48
			s48-21.5,48-48c0-5.5-1.1-10.7-2.8-15.6l89.5-71.8c7.4,4.6,16,7.4,25.3,7.4c26.5,0,48-21.5,48-48c0-2-0.4-4-0.6-6l79.5-39.5
			c8.6,8.3,20.3,13.4,33.1,13.4c26.5,0,48-21.5,48-48S458.5,80,432,80z M112,352c-8.8,0-16-7.2-16-16s7.2-16,16-16s16,7.2,16,16
			S120.8,352,112,352z M272,224c-8.8,0-16-7.2-16-16s7.2-16,16-16s16,7.2,16,16S280.8,224,272,224z M432,144c-8.8,0-16-7.2-16-16
			s7.2-16,16-16s16,7.2,16,16S440.8,144,432,144z"/>
	</g>
</g>
</svg>
