<?xml version="1.0" encoding="utf-8"?>
<!-- Generator: Adobe Illustrator 23.0.1, SVG Export Plug-In . SVG Version: 6.00 Build 0)  -->
<svg version="1.1" id="Capa_1" xmlns="http://www.w3.org/2000/svg" xmlns:xlink="http://www.w3.org/1999/xlink" x="0px" y="0px"
	 viewBox="0 0 512 512" style="enable-background:new 0 0 512 512;" xml:space="preserve">
<style type="text/css">
	.st0{fill:#0F93E9;}
</style>
<g>
	<g>
		<path class="st0" d="M448,144c-35.1,0-63.6,28.4-63.9,63.5l-56.1,14.2c-10.7-22.3-31.1-39-55.9-44v-51.9c27.5-7.2,48-32,48-61.7
			c0-35.3-28.7-64-64-64s-64,28.7-64,64c0,29.7,20.5,54.6,48,61.7v51.9c-24.8,5.1-45.2,21.8-55.9,44l-56.1-14.2
			c-0.3-35-28.8-63.5-63.9-63.5c-35.3,0-64,28.7-64,64s28.7,64,64,64c24.2,0,45.1-13.7,55.9-33.6l56.4,14.3c0,1.1-0.3,2.2-0.3,3.3
			c0,22,8.9,41.9,23.3,56.3l-50.5,75.5c-6.5-2.3-13.5-3.8-20.8-3.8c-35.3,0-64,28.7-64,64s28.7,64,64,64s64-28.7,64-64
			c0-16.4-6.4-31.2-16.5-42.5L226,330c9.3,3.8,19.4,6,30,6s20.8-2.2,30-6l50.5,75.5C326.4,416.8,320,431.6,320,448
			c0,35.3,28.7,64,64,64s64-28.7,64-64s-28.7-64-64-64c-7.3,0-14.3,1.5-20.8,3.8l-50.4-75.5C327.1,297.9,336,278,336,256
			c0-1.1-0.3-2.2-0.3-3.3l56.4-14.3c10.8,19.9,31.7,33.6,55.9,33.6c35.3,0,64-28.7,64-64S483.3,144,448,144z M64,240
			c-17.7,0-32-14.4-32-32s14.3-32,32-32s32,14.4,32,32S81.7,240,64,240z M128,480c-17.7,0-32-14.4-32-32s14.3-32,32-32
			s32,14.4,32,32S145.7,480,128,480z M224,64c0-17.6,14.3-32,32-32s32,14.4,32,32s-14.3,32-32,32S224,81.6,224,64z M256,304
			c-26.5,0-48-21.5-48-48s21.5-48,48-48s48,21.5,48,48S282.5,304,256,304z M384,416c17.7,0,32,14.4,32,32s-14.3,32-32,32
			s-32-14.4-32-32S366.3,416,384,416z M448,240c-17.7,0-32-14.4-32-32s14.3-32,32-32s32,14.4,32,32S465.7,240,448,240z"/>
	</g>
</g>
</svg>
