<?xml version="1.0" encoding="utf-8"?>
<!-- Generator: Adobe Illustrator 23.0.1, SVG Export Plug-In . SVG Version: 6.00 Build 0)  -->
<svg version="1.1" id="Capa_1" xmlns="http://www.w3.org/2000/svg" xmlns:xlink="http://www.w3.org/1999/xlink" x="0px" y="0px"
	 viewBox="0 0 480 480" style="enable-background:new 0 0 480 480;" xml:space="preserve">
<style type="text/css">
	.st0{fill:#0F93E9;}
</style>
<g>
	<g>
		<path class="st0" d="M475.5,452.8L340.4,313.6C367.7,280.5,384,238.1,384,192C384,86.1,297.9,0,192,0S0,86.1,0,192
			s86.1,192,192,192c48.2,0,92.3-18,126-47.5l134.5,138.7c3.1,3.2,7.3,4.8,11.5,4.8c4,0,8-1.5,11.1-4.5
			C481.5,469.3,481.6,459.2,475.5,452.8z M192,352c-88.2,0-160-71.8-160-160S103.8,32,192,32s160,71.8,160,160S280.2,352,192,352z"
			/>
	</g>
</g>
<g>
	<g>
		<rect x="96" y="192" class="st0" width="32" height="64"/>
	</g>
</g>
<g>
	<g>
		<rect x="160" y="160" class="st0" width="32" height="96"/>
	</g>
</g>
<g>
	<g>
		<rect x="224" y="128" class="st0" width="32" height="128"/>
	</g>
</g>
</svg>
