<?xml version="1.0" encoding="utf-8"?>
<!-- Generator: Adobe Illustrator 23.0.1, SVG Export Plug-In . SVG Version: 6.00 Build 0)  -->
<svg version="1.1" id="Capa_1" xmlns="http://www.w3.org/2000/svg" xmlns:xlink="http://www.w3.org/1999/xlink" x="0px" y="0px"
	 viewBox="0 0 512 512" style="enable-background:new 0 0 512 512;" xml:space="preserve">
<style type="text/css">
	.st0{fill:#0F93E9;}
</style>
<g>
	<g>
		<path class="st0" d="M496,480H32V16c0-8.8-7.2-16-16-16S0,7.2,0,16v464c0,17.6,14.4,32,32,32h464c8.8,0,16-7.2,16-16
			S504.8,480,496,480z"/>
	</g>
</g>
<g>
	<g>
		<path class="st0" d="M507.3,340.7l-32-32c-6.2-6.2-16.4-6.2-22.6,0s-6.2,16.4,0,22.6l27.3,27.3V416H96V32h57.4l123.3,123.3
			c6.2,6.2,16.4,6.2,22.6,0s6.2-16.4,0-22.6l-128-128c-3-3-7-4.7-11.3-4.7H80c-8.8,0-16,7.2-16,16v416c0,8.8,7.2,16,16,16h416
			c8.8,0,16-7.2,16-16v-80C512,347.7,510.3,343.7,507.3,340.7z"/>
	</g>
</g>
<g>
	<g>
		<path class="st0" d="M478.8,233.9c-2.5-6-8.3-9.9-14.8-9.9h-48V48c0-8.8-7.2-16-16-16h-64c-8.8,0-16,7.2-16,16v176h-48
			c-6.5,0-12.3,3.9-14.8,9.9c-2.5,6-1.1,12.8,3.5,17.4l96,96c3.1,3.1,7.2,4.7,11.3,4.7s8.2-1.6,11.3-4.7l96-96
			C479.9,246.8,481.3,239.9,478.8,233.9z M368,313.4L310.6,256H336c8.8,0,16-7.2,16-16V64h32v176c0,8.8,7.2,16,16,16h25.4L368,313.4
			z"/>
	</g>
</g>
</svg>
