<?xml version="1.0" encoding="utf-8"?>
<!-- Generator: Adobe Illustrator 23.0.1, SVG Export Plug-In . SVG Version: 6.00 Build 0)  -->
<svg version="1.1" id="Capa_1" xmlns="http://www.w3.org/2000/svg" xmlns:xlink="http://www.w3.org/1999/xlink" x="0px" y="0px"
	 viewBox="0 0 512 512" style="enable-background:new 0 0 512 512;" xml:space="preserve">
<style type="text/css">
	.st0{fill:#0F93E9;}
</style>
<g>
	<g>
		<path class="st0" d="M431.4,188.3c0.3-4.1,0.6-8.2,0.6-12.3C432,78.9,353,0,256,0S80,78.9,80,176c0,4.2,0.4,8.2,0.6,12.3
			C32.2,219.7,0,274.1,0,336c0,97.1,79,176,176,176c28.8,0,56-7.1,80-19.4c24,12.3,51.2,19.4,80,19.4c97,0,176-78.9,176-176
			C512,274.1,479.8,219.7,431.4,188.3z M256,32c78.1,0,141.5,62.5,143.6,140.1c-19.8-7.7-41.2-12.1-63.6-12.1
			c-28.8,0-56,7.1-80,19.4c-24-12.3-51.2-19.4-80-19.4c-22.4,0-43.8,4.4-63.6,12.1C114.5,94.5,177.9,32,256,32z M256,216.4
			c30.6,20.5,52.9,52.5,60.8,89.7c-18.5,8.7-39,13.9-60.8,13.9s-42.2-5.2-60.8-13.9C203.1,268.9,225.4,236.9,256,216.4z
			 M166.8,288.2c-25.6-20.4-44.5-49-51.6-82.2c18.5-8.7,39-13.9,60.8-13.9c16.8,0,32.6,3.4,47.6,8.7
			C196.6,223.2,176.6,253.5,166.8,288.2z M288.4,200.7c15-5.3,30.8-8.7,47.6-8.7c21.8,0,42.2,5.2,60.8,13.9
			c-7,33.2-25.9,61.8-51.6,82.2C335.4,253.5,315.4,223.2,288.4,200.7z M176,480c-79.4,0-144-64.6-144-144
			c0-45.6,21.7-85.7,54.8-112.2c11.8,41.6,38.4,76.9,73.8,99.8c-0.3,4.1-0.6,8.2-0.6,12.3c0,54.3,24.8,103,63.6,135.3
			C208.6,476.6,192.8,480,176,480z M256,455.6c-37.5-25.2-62.3-67.6-63.6-115.7c19.8,7.7,41.2,12.1,63.6,12.1s43.8-4.4,63.6-12.1
			C318.3,388.1,293.5,430.5,256,455.6z M336,480c-16.8,0-32.6-3.4-47.6-8.7C327.2,439,352,390.3,352,336c0-4.2-0.4-8.2-0.6-12.3
			c35.4-23,62-58.3,73.8-99.8C458.3,250.3,480,290.4,480,336C480,415.4,415.4,480,336,480z"/>
	</g>
</g>
</svg>
