<?xml version="1.0" encoding="utf-8"?>
<!-- Generator: Adobe Illustrator 23.0.1, SVG Export Plug-In . SVG Version: 6.00 Build 0)  -->
<svg version="1.1" id="Capa_1" xmlns="http://www.w3.org/2000/svg" xmlns:xlink="http://www.w3.org/1999/xlink" x="0px" y="0px"
	 viewBox="0 0 480 480" style="enable-background:new 0 0 480 480;" xml:space="preserve">
<style type="text/css">
	.st0{fill:#0F93E9;}
</style>
<g>
	<g>
		<path class="st0" d="M464,432h-16V192c0-8.8-7.2-16-16-16h-64c-8.8,0-16,7.2-16,16v240h-64V288c0-8.8-7.2-16-16-16h-64
			c-8.8,0-16,7.2-16,16v144h-64V192c0-8.8-7.2-16-16-16H48c-8.8,0-16,7.2-16,16v240H16c-8.8,0-16,7.2-16,16s7.2,16,16,16h448
			c8.8,0,16-7.2,16-16S472.8,432,464,432z M96,432H64V208h32V432z M256,432h-32V304h32V432z M416,432h-32V208h32V432z"/>
	</g>
</g>
<g>
	<g>
		<path class="st0" d="M400,16c-26.5,0-48,21.5-48,48c0,3.3,0.4,6.5,1,9.6l-82.6,49.6C262,116.3,251.6,112,240,112
			s-22,4.3-30.4,11.1L127,73.6c0.6-3.1,1-6.3,1-9.6c0-26.5-21.5-48-48-48S32,37.5,32,64s21.5,48,48,48c11.6,0,22-4.3,30.4-11.1
			l82.6,49.6c-0.6,3.1-1,6.3-1,9.6c0,26.5,21.5,48,48,48s48-21.5,48-48c0-3.3-0.4-6.5-1-9.6l82.6-49.6c8.3,6.8,18.8,11.1,30.4,11.1
			c26.5,0,48-21.5,48-48S426.5,16,400,16z M93.5,72C93.5,72,93.5,72,93.5,72c-0.1,0.1-0.1,0.1-0.1,0.1C90.6,76.8,85.8,80,80,80
			c-8.8,0-16-7.2-16-16s7.2-16,16-16s16,7.2,16,16C96,67,95,69.6,93.5,72z M240,176c-8.8,0-16-7.2-16-16c0-3,1.1-5.6,2.5-8
			c0,0,0,0,0.1-0.1c0,0,0,0,0-0.1c2.8-4.6,7.6-7.8,13.4-7.8s10.6,3.2,13.4,7.9c0,0,0,0,0,0.1c0,0,0,0,0.1,0.1c1.4,2.4,2.5,5,2.5,8
			C256,168.8,248.8,176,240,176z M400,80c-5.8,0-10.6-3.3-13.4-7.9c0,0,0,0,0-0.1c0,0-0.1,0-0.1-0.1c-1.4-2.4-2.5-5-2.5-8
			c0-8.8,7.2-16,16-16s16,7.2,16,16S408.8,80,400,80z"/>
	</g>
</g>
</svg>
