<?xml version="1.0" encoding="utf-8"?>
<!-- Generator: Adobe Illustrator 23.0.1, SVG Export Plug-In . SVG Version: 6.00 Build 0)  -->
<svg version="1.1" id="Capa_1" xmlns="http://www.w3.org/2000/svg" xmlns:xlink="http://www.w3.org/1999/xlink" x="0px" y="0px"
	 viewBox="0 0 512 512" style="enable-background:new 0 0 512 512;" xml:space="preserve">
<style type="text/css">
	.st0{fill:#0F93E9;}
</style>
<g>
	<g>
		<path class="st0" d="M496,480H32V16c0-8.8-7.2-16-16-16S0,7.2,0,16v464c0,17.6,14.3,32,32,32h464c8.8,0,16-7.2,16-16
			S504.8,480,496,480z"/>
	</g>
</g>
<g>
	<g>
		<path class="st0" d="M336,0c-97,0-176,78.9-176,177c0,8.8,7.2,15.5,16,15.5s16-7.6,16-16.5c0-79.4,64.6-144,144-144
			s144,64.6,144,144s-64.6,144-144,144h-1c-8.8,0-15.5,7.2-15.5,16s7.6,16,16.5,16c97,0,176-78.9,176-176S433,0,336,0z"/>
	</g>
</g>
<g>
	<g>
		<path class="st0" d="M192,224c-52.9,0-96,43.1-96,96s43.1,96,96,96s96-43.1,96-96S244.9,224,192,224z M192,384
			c-35.3,0-64-28.7-64-64s28.7-64,64-64s64,28.7,64,64S227.3,384,192,384z"/>
	</g>
</g>
<g>
	<g>
		<path class="st0" d="M112,0C85.5,0,64,21.5,64,48s21.5,48,48,48s48-21.5,48-48S138.5,0,112,0z M112,64c-8.8,0-16-7.2-16-16
			s7.2-16,16-16s16,7.2,16,16S120.8,64,112,64z"/>
	</g>
</g>
</svg>
